<?xml version="1.0" encoding="us-ascii" standalone="no"?><svg xmlns="http://www.w3.org/2000/svg" xmlns:xlink="http://www.w3.org/1999/xlink" contentStyleType="text/css" height="299px" preserveAspectRatio="none" style="width:489px;height:299px;background:#FFFFFF;" version="1.1" viewBox="0 0 489 299" width="489px" zoomAndPan="magnify"><defs/><g><ellipse cx="241" cy="20" fill="#222222" rx="10" ry="10" style="stroke:#222222;stroke-width:1.0;"/><polygon fill="#F1F1F1" points="200.5,50,281.5,50,293.5,62,281.5,74,200.5,74,188.5,62,200.5,50" style="stroke:#181818;stroke-width:0.5;"/><text fill="#000000" font-family="sans-serif" font-size="11" lengthAdjust="spacing" textLength="75" x="203.5" y="66.501">&#1095;&#1080;&#1089;&#1083;&#1086; &#1087;&#1086;&#1090;&#1086;&#1082;&#1086;&#1074;</text><rect fill="#F1F1F1" height="35.0938" rx="12.5" ry="12.5" style="stroke:#181818;stroke-width:0.5;" width="62" x="11" y="111.6719"/><text fill="#000000" font-family="sans-serif" font-size="12" lengthAdjust="spacing" textLength="42" x="21" y="134.1289">1 &#1087;&#1086;&#1090;&#1086;&#1082;</text><rect fill="#F1F1F1" height="35.0938" rx="12.5" ry="12.5" style="stroke:#181818;stroke-width:0.5;" width="69" x="98" y="111.6719"/><text fill="#000000" font-family="sans-serif" font-size="12" lengthAdjust="spacing" textLength="49" x="108" y="134.1289">2 &#1087;&#1086;&#1090;&#1086;&#1082;&#1072;</text><rect fill="#F1F1F1" height="35.0938" rx="12.5" ry="12.5" style="stroke:#181818;stroke-width:0.5;" width="69" x="192.25" y="111.6719"/><text fill="#000000" font-family="sans-serif" font-size="12" lengthAdjust="spacing" textLength="49" x="202.25" y="134.1289">3 &#1087;&#1086;&#1090;&#1086;&#1082;&#1072;</text><rect fill="#F1F1F1" height="90.375" rx="12.5" ry="12.5" style="stroke:#181818;stroke-width:0.5;" width="90" x="292.75" y="111.6719"/><text fill="#000000" font-family="sans-serif" font-size="12" lengthAdjust="spacing" textLength="49" x="302.75" y="134.1289">4 &#1087;&#1086;&#1090;&#1086;&#1082;&#1072;</text><line style="stroke:#181818;stroke-width:1.0;" x1="292.75" x2="382.75" y1="141.7656" y2="141.7656"/><text fill="#000000" font-family="sans-serif" font-size="12" lengthAdjust="spacing" textLength="47" x="302.75" y="159.2227">&#1089;&#1088;&#1086;&#1095;&#1085;&#1086;&#1077;</text><text fill="#000000" font-family="sans-serif" font-size="12" lengthAdjust="spacing" textLength="70" x="302.75" y="174.3164">&#1079;&#1072;&#1074;&#1077;&#1088;&#1096;&#1077;&#1085;&#1080;&#1077;</text><text fill="#000000" font-family="sans-serif" font-size="12" lengthAdjust="spacing" textLength="15" x="302.75" y="189.4102">kill</text><rect fill="#F1F1F1" height="35.0938" rx="12.5" ry="12.5" style="stroke:#181818;stroke-width:0.5;" width="75" x="393.75" y="111.6719"/><text fill="#000000" font-family="sans-serif" font-size="12" lengthAdjust="spacing" textLength="55" x="403.75" y="134.1289">5 &#1087;&#1086;&#1090;&#1086;&#1082;&#1086;&#1074;</text><polygon fill="#F1F1F1" points="241,222.0469,241,222.0469,253,234.0469,241,246.0469,241,246.0469,229,234.0469,241,222.0469" style="stroke:#181818;stroke-width:0.5;"/><ellipse cx="241" cy="277.0469" fill="none" rx="11" ry="11" style="stroke:#222222;stroke-width:1.0;"/><ellipse cx="241" cy="277.0469" fill="#222222" rx="6" ry="6" style="stroke:#222222;stroke-width:1.0;"/><line style="stroke:#181818;stroke-width:1.0;" x1="188.5" x2="42" y1="62" y2="62"/><line style="stroke:#181818;stroke-width:1.0;" x1="42" x2="42" y1="62" y2="111.6719"/><polygon fill="#181818" points="38,101.6719,42,111.6719,46,101.6719,42,105.6719" style="stroke:#181818;stroke-width:1.0;"/><text fill="#000000" font-family="sans-serif" font-size="11" lengthAdjust="spacing" textLength="40" x="45" y="91.3369">&#1088;&#1072;&#1074;&#1085;&#1086; 1</text><line style="stroke:#181818;stroke-width:1.0;" x1="293.5" x2="431.25" y1="62" y2="62"/><line style="stroke:#181818;stroke-width:1.0;" x1="431.25" x2="431.25" y1="62" y2="111.6719"/><polygon fill="#181818" points="427.25,101.6719,431.25,111.6719,435.25,101.6719,431.25,105.6719" style="stroke:#181818;stroke-width:1.0;"/><text fill="#000000" font-family="sans-serif" font-size="11" lengthAdjust="spacing" textLength="40" x="434.25" y="91.3369">&#1088;&#1072;&#1074;&#1085;&#1086; 5</text><line style="stroke:#181818;stroke-width:1.0;" x1="132.5" x2="132.5" y1="62" y2="111.6719"/><polygon fill="#181818" points="128.5,101.6719,132.5,111.6719,136.5,101.6719,132.5,105.6719" style="stroke:#181818;stroke-width:1.0;"/><text fill="#000000" font-family="sans-serif" font-size="11" lengthAdjust="spacing" textLength="40" x="135.5" y="86.3369">&#1088;&#1072;&#1074;&#1085;&#1086; 2</text><line style="stroke:#181818;stroke-width:1.0;" x1="241" x2="241" y1="74" y2="86.5573"/><line style="stroke:#181818;stroke-width:1.0;" x1="241" x2="226.75" y1="86.5573" y2="86.5573"/><line style="stroke:#181818;stroke-width:1.0;" x1="226.75" x2="226.75" y1="86.5573" y2="111.6719"/><polygon fill="#181818" points="222.75,101.6719,226.75,111.6719,230.75,101.6719,226.75,105.6719" style="stroke:#181818;stroke-width:1.0;"/><text fill="#000000" font-family="sans-serif" font-size="11" lengthAdjust="spacing" textLength="40" x="229.75" y="92.3369">&#1088;&#1072;&#1074;&#1085;&#1086; 3</text><line style="stroke:#181818;stroke-width:1.0;" x1="337.75" x2="337.75" y1="62" y2="111.6719"/><polygon fill="#181818" points="333.75,101.6719,337.75,111.6719,341.75,101.6719,337.75,105.6719" style="stroke:#181818;stroke-width:1.0;"/><text fill="#000000" font-family="sans-serif" font-size="11" lengthAdjust="spacing" textLength="40" x="340.75" y="86.3369">&#1088;&#1072;&#1074;&#1085;&#1086; 4</text><line style="stroke:#181818;stroke-width:1.0;" x1="42" x2="42" y1="146.7656" y2="234.0469"/><line style="stroke:#181818;stroke-width:1.0;" x1="42" x2="229" y1="234.0469" y2="234.0469"/><polygon fill="#181818" points="219,230.0469,229,234.0469,219,238.0469,223,234.0469" style="stroke:#181818;stroke-width:1.0;"/><line style="stroke:#181818;stroke-width:1.0;" x1="431.25" x2="431.25" y1="146.7656" y2="234.0469"/><line style="stroke:#181818;stroke-width:1.0;" x1="431.25" x2="253" y1="234.0469" y2="234.0469"/><polygon fill="#181818" points="263,230.0469,253,234.0469,263,238.0469,259,234.0469" style="stroke:#181818;stroke-width:1.0;"/><line style="stroke:#181818;stroke-width:1.0;" x1="132.5" x2="132.5" y1="146.7656" y2="234.0469"/><polygon fill="#181818" points="128.5,224.0469,132.5,234.0469,136.5,224.0469,132.5,228.0469" style="stroke:#181818;stroke-width:1.0;"/><line style="stroke:#181818;stroke-width:1.0;" x1="226.75" x2="226.75" y1="146.7656" y2="207.0469"/><line style="stroke:#181818;stroke-width:1.0;" x1="226.75" x2="241" y1="207.0469" y2="207.0469"/><line style="stroke:#181818;stroke-width:1.0;" x1="241" x2="241" y1="207.0469" y2="222.0469"/><polygon fill="#181818" points="237,212.0469,241,222.0469,245,212.0469,241,216.0469" style="stroke:#181818;stroke-width:1.0;"/><line style="stroke:#181818;stroke-width:1.0;" x1="241" x2="241" y1="30" y2="50"/><polygon fill="#181818" points="237,40,241,50,245,40,241,44" style="stroke:#181818;stroke-width:1.0;"/><line style="stroke:#181818;stroke-width:1.0;" x1="241" x2="241" y1="246.0469" y2="266.0469"/><polygon fill="#181818" points="237,256.0469,241,266.0469,245,256.0469,241,260.0469" style="stroke:#181818;stroke-width:1.0;"/><!--SRC=[XT1D2i8m40NWVKunIxjmqR-DEKsf1Oj5nGRSjcxqEAKGB8hn2YytSjgug18m40OUNsR8r2exAY7gKwdo3It8NZ3O5WyOmWl6dc5mvzjJ8FAiBaRIe4EF9vEGKw9LEBFImo8AQ7JHl6Vdax5h6F-5YOF95-HaoOUBRTaQ_WnRQ0vmcvvgszWhDCV356_BgfAVwfcIkYdfpowaA7Phjp9UdTeVn1i0]--></g></svg>